<?xml version="1.0" encoding="UTF-8"?>
<svg xmlns="http://www.w3.org/2000/svg" xmlns:xlink="http://www.w3.org/1999/xlink" width="141.732pt" height="141.732pt" viewBox="0 0 141.732 141.732" version="1.1">
<g id="surface1">
<path style=" stroke:none;fill-rule:nonzero;fill:rgb(10.047913%,28.990173%,15.72876%);fill-opacity:1;" d="M 22.175781 109.140625 L 24.90625 109.140625 L 24.90625 114.25 L 27.582031 114.25 L 27.582031 116.332031 L 22.175781 116.332031 Z M 22.175781 109.140625 "/>
<path style=" stroke:none;fill-rule:nonzero;fill:rgb(10.047913%,28.990173%,15.72876%);fill-opacity:1;" d="M 28.425781 109.140625 L 31.15625 109.140625 L 31.15625 116.332031 L 28.425781 116.332031 Z M 28.425781 109.140625 "/>
<path style=" stroke:none;fill-rule:nonzero;fill:rgb(10.047913%,28.990173%,15.72876%);fill-opacity:1;" d="M 36.675781 116.332031 L 33.964844 116.332031 L 33.964844 111.183594 L 31.984375 111.183594 L 31.984375 109.140625 L 38.65625 109.140625 L 38.65625 111.183594 L 36.675781 111.183594 Z M 36.675781 116.332031 "/>
<path style=" stroke:none;fill-rule:nonzero;fill:rgb(10.047913%,28.990173%,15.72876%);fill-opacity:1;" d="M 44.402344 113.597656 L 42.191406 113.597656 L 42.191406 116.332031 L 39.484375 116.332031 L 39.484375 109.140625 L 42.183594 109.140625 L 42.183594 111.578125 L 44.390625 111.578125 L 44.390625 109.140625 L 47.109375 109.140625 L 47.109375 116.332031 L 44.402344 116.332031 Z M 44.402344 113.597656 "/>
<path style=" stroke:none;fill-rule:nonzero;fill:rgb(10.047913%,28.990173%,15.72876%);fill-opacity:1;" d="M 52.230469 116.535156 C 51.597656 116.535156 51.050781 116.457031 50.585938 116.304688 C 50.117188 116.144531 49.730469 115.933594 49.417969 115.660156 C 49.105469 115.390625 48.875 115.070312 48.722656 114.703125 C 48.570312 114.332031 48.496094 113.933594 48.496094 113.507812 L 48.496094 109.140625 L 51.203125 109.140625 L 51.203125 113.242188 C 51.203125 113.589844 51.296875 113.859375 51.484375 114.050781 C 51.667969 114.246094 51.933594 114.34375 52.273438 114.34375 C 52.617188 114.34375 52.878906 114.246094 53.066406 114.050781 C 53.25 113.859375 53.34375 113.589844 53.34375 113.242188 L 53.34375 109.140625 L 56.039062 109.140625 L 56.039062 113.507812 C 56.039062 113.933594 55.960938 114.332031 55.796875 114.703125 C 55.632812 115.070312 55.394531 115.390625 55.074219 115.660156 C 54.753906 115.933594 54.359375 116.144531 53.886719 116.304688 C 53.410156 116.457031 52.859375 116.535156 52.230469 116.535156 "/>
<path style=" stroke:none;fill-rule:nonzero;fill:rgb(10.047913%,28.990173%,15.72876%);fill-opacity:1;" d="M 60.867188 111.648438 L 60.207031 113.425781 L 61.515625 113.425781 Z M 59.464844 109.140625 L 62.34375 109.140625 L 65.484375 116.332031 L 62.539062 116.332031 L 62.117188 115.277344 L 59.558594 115.277344 L 59.160156 116.332031 L 56.292969 116.332031 Z M 59.464844 109.140625 "/>
<path style=" stroke:none;fill-rule:nonzero;fill:rgb(10.047913%,28.990173%,15.72876%);fill-opacity:1;" d="M 66.054688 109.140625 L 68.75 109.140625 L 71.050781 112.785156 L 71.09375 112.785156 L 70.980469 109.140625 L 73.554688 109.140625 L 73.554688 116.332031 L 70.789062 116.332031 L 68.558594 112.898438 L 68.511719 112.898438 L 68.625 116.332031 L 66.054688 116.332031 Z M 66.054688 109.140625 "/>
<path style=" stroke:none;fill-rule:nonzero;fill:rgb(10.047913%,28.990173%,15.72876%);fill-opacity:1;" d="M 75.054688 109.140625 L 77.785156 109.140625 L 77.785156 116.332031 L 75.054688 116.332031 Z M 75.054688 109.140625 "/>
<path style=" stroke:none;fill-rule:nonzero;fill:rgb(10.047913%,28.990173%,15.72876%);fill-opacity:1;" d="M 82.929688 111.648438 L 82.269531 113.425781 L 83.578125 113.425781 Z M 81.53125 109.140625 L 84.410156 109.140625 L 87.550781 116.332031 L 84.601562 116.332031 L 84.179688 115.277344 L 81.621094 115.277344 L 81.222656 116.332031 L 78.355469 116.332031 Z M 81.53125 109.140625 "/>
<path style=" stroke:none;fill-rule:nonzero;fill:rgb(10.047913%,28.990173%,15.72876%);fill-opacity:1;" d="M 93.945312 112.175781 C 94.074219 112.089844 94.179688 111.992188 94.261719 111.882812 C 94.34375 111.773438 94.386719 111.664062 94.386719 111.546875 C 94.386719 111.410156 94.339844 111.292969 94.246094 111.191406 C 94.148438 111.089844 94 111.039062 93.796875 111.039062 C 93.578125 111.039062 93.394531 111.117188 93.25 111.273438 C 93.105469 111.429688 93.027344 111.636719 93.011719 111.902344 L 90.425781 111.636719 C 90.480469 111.171875 90.617188 110.769531 90.839844 110.429688 C 91.058594 110.089844 91.332031 109.808594 91.664062 109.585938 C 91.992188 109.363281 92.359375 109.199219 92.765625 109.09375 C 93.171875 108.988281 93.589844 108.9375 94.023438 108.9375 C 94.417969 108.9375 94.808594 108.980469 95.203125 109.070312 C 95.589844 109.15625 95.9375 109.292969 96.242188 109.480469 C 96.546875 109.667969 96.792969 109.90625 96.980469 110.207031 C 97.171875 110.503906 97.265625 110.863281 97.265625 111.28125 C 97.265625 111.582031 97.222656 111.84375 97.136719 112.070312 C 97.046875 112.296875 96.929688 112.5 96.785156 112.675781 C 96.632812 112.851562 96.46875 113.011719 96.28125 113.152344 C 96.097656 113.292969 95.902344 113.429688 95.695312 113.558594 L 94.511719 114.3125 L 97.289062 114.3125 L 97.289062 116.332031 L 90.757812 116.332031 L 90.757812 114.453125 Z M 93.945312 112.175781 "/>
<path style=" stroke:none;fill-rule:nonzero;fill:rgb(10.047913%,28.990173%,15.72876%);fill-opacity:1;" d="M 101.953125 111.019531 C 101.785156 111.019531 101.648438 111.070312 101.546875 111.171875 C 101.4375 111.273438 101.355469 111.40625 101.292969 111.566406 C 101.234375 111.730469 101.191406 111.914062 101.167969 112.109375 C 101.144531 112.3125 101.136719 112.503906 101.136719 112.695312 C 101.136719 112.890625 101.144531 113.09375 101.167969 113.300781 C 101.191406 113.507812 101.234375 113.695312 101.292969 113.863281 C 101.355469 114.03125 101.4375 114.171875 101.546875 114.273438 C 101.648438 114.378906 101.785156 114.433594 101.953125 114.433594 C 102.121094 114.433594 102.261719 114.378906 102.371094 114.273438 C 102.480469 114.171875 102.5625 114.03125 102.621094 113.863281 C 102.675781 113.695312 102.71875 113.507812 102.738281 113.300781 C 102.761719 113.09375 102.773438 112.890625 102.773438 112.695312 C 102.773438 112.503906 102.761719 112.3125 102.738281 112.109375 C 102.71875 111.914062 102.675781 111.730469 102.621094 111.566406 C 102.5625 111.40625 102.480469 111.273438 102.371094 111.171875 C 102.261719 111.070312 102.121094 111.019531 101.953125 111.019531 M 101.953125 116.535156 C 101.460938 116.535156 101.027344 116.476562 100.65625 116.363281 C 100.285156 116.25 99.96875 116.09375 99.699219 115.894531 C 99.433594 115.699219 99.214844 115.472656 99.035156 115.214844 C 98.855469 114.957031 98.71875 114.6875 98.613281 114.402344 C 98.511719 114.117188 98.441406 113.832031 98.398438 113.539062 C 98.355469 113.25 98.335938 112.964844 98.335938 112.695312 C 98.335938 112.429688 98.355469 112.152344 98.398438 111.863281 C 98.441406 111.570312 98.511719 111.289062 98.613281 111.007812 C 98.71875 110.730469 98.855469 110.46875 99.035156 110.214844 C 99.214844 109.964844 99.433594 109.746094 99.699219 109.554688 C 99.96875 109.367188 100.285156 109.214844 100.65625 109.105469 C 101.027344 108.992188 101.460938 108.9375 101.953125 108.9375 C 102.695312 108.9375 103.304688 109.054688 103.773438 109.296875 C 104.246094 109.539062 104.613281 109.84375 104.878906 110.210938 C 105.144531 110.582031 105.324219 110.988281 105.425781 111.429688 C 105.523438 111.875 105.574219 112.296875 105.574219 112.695312 C 105.574219 112.960938 105.550781 113.238281 105.511719 113.535156 C 105.46875 113.828125 105.394531 114.117188 105.292969 114.402344 C 105.191406 114.6875 105.054688 114.957031 104.878906 115.214844 C 104.703125 115.472656 104.480469 115.699219 104.214844 115.894531 C 103.941406 116.09375 103.625 116.25 103.253906 116.363281 C 102.878906 116.476562 102.445312 116.535156 101.953125 116.535156 "/>
<path style=" stroke:none;fill-rule:nonzero;fill:rgb(10.047913%,28.990173%,15.72876%);fill-opacity:1;" d="M 109.875 112.175781 C 110.003906 112.089844 110.109375 111.992188 110.191406 111.882812 C 110.277344 111.773438 110.316406 111.664062 110.316406 111.546875 C 110.316406 111.410156 110.269531 111.292969 110.175781 111.191406 C 110.082031 111.089844 109.933594 111.039062 109.726562 111.039062 C 109.507812 111.039062 109.324219 111.117188 109.179688 111.273438 C 109.035156 111.429688 108.957031 111.636719 108.941406 111.902344 L 106.359375 111.636719 C 106.410156 111.171875 106.546875 110.769531 106.769531 110.429688 C 106.988281 110.089844 107.261719 109.808594 107.59375 109.585938 C 107.921875 109.363281 108.289062 109.199219 108.695312 109.09375 C 109.101562 108.988281 109.519531 108.9375 109.953125 108.9375 C 110.347656 108.9375 110.742188 108.980469 111.132812 109.070312 C 111.523438 109.15625 111.871094 109.292969 112.171875 109.480469 C 112.476562 109.667969 112.722656 109.90625 112.914062 110.207031 C 113.101562 110.503906 113.195312 110.863281 113.195312 111.28125 C 113.195312 111.582031 113.152344 111.84375 113.066406 112.070312 C 112.980469 112.296875 112.859375 112.5 112.714844 112.675781 C 112.566406 112.851562 112.398438 113.011719 112.214844 113.152344 C 112.027344 113.292969 111.832031 113.429688 111.628906 113.558594 L 110.441406 114.3125 L 113.21875 114.3125 L 113.21875 116.332031 L 106.6875 116.332031 L 106.6875 114.453125 Z M 109.875 112.175781 "/>
<path style=" stroke:none;fill-rule:nonzero;fill:rgb(10.047913%,28.990173%,15.72876%);fill-opacity:1;" d="M 118.125 111.355469 L 116.78125 113.171875 L 118.171875 113.171875 L 118.171875 111.355469 Z M 120.59375 116.332031 L 118.136719 116.332031 L 118.136719 115.0625 L 114.257812 115.0625 L 114.257812 113.089844 L 117.304688 109.140625 L 120.582031 109.140625 L 120.582031 113.171875 L 121.675781 113.171875 L 121.675781 115.0625 L 120.59375 115.0625 Z M 120.59375 116.332031 "/>
<path style=" stroke:none;fill-rule:nonzero;fill:rgb(10.047913%,28.990173%,15.72876%);fill-opacity:1;" d="M 118.191406 31.164062 L 95.203125 23.84375 L 93.878906 32.960938 L 87.214844 30.894531 L 87.214844 21.375 L 57.125 21.375 L 57.125 30.941406 L 50.128906 33.082031 L 48.917969 23.890625 L 25.867188 31.25 L 22.335938 103.3125 L 31.453125 103.3125 L 34.546875 38.003906 L 42.21875 35.582031 L 43.953125 44.660156 L 64.050781 38.148438 L 64.050781 33.078125 L 79.863281 33.078125 L 79.863281 38.039062 L 100.101562 44.550781 L 101.839844 35.519531 L 109.800781 38.039062 L 112.472656 103.3125 L 121.621094 103.3125 Z M 118.191406 31.164062 "/>
<path style=" stroke:none;fill-rule:nonzero;fill:rgb(10.047913%,28.990173%,15.72876%);fill-opacity:1;" d="M 91.050781 92.949219 L 77.132812 92.949219 L 77.132812 71.527344 L 91.050781 71.527344 Z M 95.945312 66.515625 L 95.945312 61.222656 L 72.390625 61.222656 L 72.375 66.515625 L 68.164062 66.515625 L 68.164062 97.925781 L 72.394531 97.925781 L 72.394531 103.179688 L 95.945312 103.179688 L 95.945312 97.90625 L 100.160156 97.90625 L 100.160156 66.515625 Z M 95.945312 66.515625 "/>
<path style=" stroke:none;fill-rule:nonzero;fill:rgb(10.047913%,28.990173%,15.72876%);fill-opacity:1;" d="M 109.640625 103.179688 L 101.925781 103.179688 L 101.925781 61.203125 L 109.640625 61.203125 Z M 109.640625 103.179688 "/>
<path style=" stroke:none;fill-rule:nonzero;fill:rgb(10.047913%,28.990173%,15.72876%);fill-opacity:1;" d="M 57.339844 77.050781 L 42.367188 77.078125 L 42.367188 71.539062 L 57.339844 71.511719 Z M 57.339844 92.941406 L 42.367188 92.914062 L 42.367188 87.324219 L 57.339844 87.351562 Z M 66.257812 77.042969 L 66.257812 66.496094 L 61.972656 66.496094 L 61.972656 61.222656 L 34.527344 61.222656 L 34.527344 103.179688 L 61.972656 103.179688 L 61.972656 97.941406 L 66.238281 97.941406 L 66.238281 82.226562 L 61.992188 82.226562 L 61.992188 77.042969 Z M 66.257812 77.042969 "/>
</g>
</svg>
