<?xml version="1.0" encoding="UTF-8" standalone="no"?>
<svg
   width="99.5pt"
   height="95.160156pt"
   viewBox="0 0 99.500004 95.16016"
   version="1.1"
   id="svg900"
   sodipodi:docname="Green_logo_no_margin.svg"
   inkscape:version="1.1.2 (b8e25be833, 2022-02-05)"
   xmlns:inkscape="http://www.inkscape.org/namespaces/inkscape"
   xmlns:sodipodi="http://sodipodi.sourceforge.net/DTD/sodipodi-0.dtd"
   xmlns="http://www.w3.org/2000/svg"
   xmlns:svg="http://www.w3.org/2000/svg">
  <defs
     id="defs904" />
  <sodipodi:namedview
     id="namedview902"
     pagecolor="#ffffff"
     bordercolor="#666666"
     borderopacity="1.0"
     inkscape:pageshadow="2"
     inkscape:pageopacity="0.0"
     inkscape:pagecheckerboard="0"
     inkscape:document-units="pt"
     showgrid="false"
     inkscape:zoom="6.1806793"
     inkscape:cx="64.798703"
     inkscape:cy="66.012162"
     inkscape:window-width="2560"
     inkscape:window-height="1377"
     inkscape:window-x="-8"
     inkscape:window-y="-8"
     inkscape:window-maximized="1"
     inkscape:current-layer="svg900" />
  <g
     id="surface1"
     transform="translate(-22.175781,-21.375)">
    <path
       style="fill:#194726;fill-opacity:1;fill-rule:nonzero;stroke:none"
       d="M 22.175781,109.14063 H 24.90625 V 114.25 h 2.675781 v 2.08203 h -5.40625 z m 0,0"
       id="path865" />
    <path
       style="fill:#194726;fill-opacity:1;fill-rule:nonzero;stroke:none"
       d="m 28.425781,109.14063 h 2.730469 v 7.1914 h -2.730469 z m 0,0"
       id="path867" />
    <path
       style="fill:#194726;fill-opacity:1;fill-rule:nonzero;stroke:none"
       d="m 36.675781,116.33203 h -2.710937 v -5.14844 h -1.980469 v -2.04296 h 6.671875 v 2.04296 h -1.980469 z m 0,0"
       id="path869" />
    <path
       style="fill:#194726;fill-opacity:1;fill-rule:nonzero;stroke:none"
       d="m 44.402344,113.59766 h -2.210938 v 2.73437 h -2.707031 v -7.1914 h 2.699219 v 2.4375 h 2.207031 v -2.4375 h 2.71875 v 7.1914 h -2.707031 z m 0,0"
       id="path871" />
    <path
       style="fill:#194726;fill-opacity:1;fill-rule:nonzero;stroke:none"
       d="m 52.230469,116.53516 c -0.632813,0 -1.179688,-0.0781 -1.644531,-0.23047 -0.46875,-0.16016 -0.855469,-0.3711 -1.167969,-0.64453 -0.3125,-0.26953 -0.542969,-0.58985 -0.695313,-0.95703 -0.152344,-0.3711 -0.226562,-0.76954 -0.226562,-1.19532 v -4.36718 h 2.707031 v 4.10156 c 0,0.34765 0.09375,0.61719 0.28125,0.80859 0.183594,0.19531 0.449219,0.29297 0.789063,0.29297 0.34375,0 0.605468,-0.0977 0.792968,-0.29297 0.183594,-0.1914 0.277344,-0.46094 0.277344,-0.80859 v -4.10156 h 2.695312 v 4.36718 c 0,0.42578 -0.07812,0.82422 -0.242187,1.19532 -0.164063,0.36718 -0.402344,0.6875 -0.722656,0.95703 -0.320313,0.27343 -0.714844,0.48437 -1.1875,0.64453 -0.476563,0.15234 -1.027344,0.23047 -1.65625,0.23047"
       id="path873" />
    <path
       style="fill:#194726;fill-opacity:1;fill-rule:nonzero;stroke:none"
       d="m 60.867188,111.64844 -0.660157,1.77734 h 1.308594 z m -1.402344,-2.50781 h 2.878906 l 3.140625,7.1914 h -2.945313 l -0.421874,-1.05469 h -2.558594 l -0.398438,1.05469 h -2.867187 z m 0,0"
       id="path875" />
    <path
       style="fill:#194726;fill-opacity:1;fill-rule:nonzero;stroke:none"
       d="M 66.054688,109.14063 H 68.75 l 2.300781,3.64453 h 0.04297 l -0.113281,-3.64453 h 2.574219 v 7.1914 h -2.765626 l -2.230468,-3.43359 h -0.04687 l 0.113281,3.43359 h -2.570312 z m 0,0"
       id="path877" />
    <path
       style="fill:#194726;fill-opacity:1;fill-rule:nonzero;stroke:none"
       d="m 75.054688,109.14063 h 2.730468 v 7.1914 h -2.730468 z m 0,0"
       id="path879" />
    <path
       style="fill:#194726;fill-opacity:1;fill-rule:nonzero;stroke:none"
       d="m 82.929688,111.64844 -0.660157,1.77734 h 1.308594 z m -1.398438,-2.50781 h 2.878906 l 3.140625,7.1914 h -2.949219 l -0.421874,-1.05469 h -2.558594 l -0.398438,1.05469 h -2.867187 z m 0,0"
       id="path881" />
    <path
       style="fill:#194726;fill-opacity:1;fill-rule:nonzero;stroke:none"
       d="m 93.945312,112.17578 c 0.128907,-0.0859 0.234376,-0.18359 0.316407,-0.29297 0.08203,-0.10937 0.125,-0.21875 0.125,-0.33593 0,-0.13672 -0.04687,-0.25391 -0.140625,-0.35547 -0.09766,-0.10157 -0.246094,-0.15235 -0.449219,-0.15235 -0.21875,0 -0.402344,0.0781 -0.546875,0.23438 -0.144531,0.15625 -0.222656,0.36328 -0.238281,0.6289 l -2.585938,-0.26562 c 0.05469,-0.46484 0.191407,-0.86719 0.414063,-1.20703 0.21875,-0.33985 0.492187,-0.6211 0.824218,-0.84375 0.328126,-0.22266 0.695313,-0.38672 1.101563,-0.49219 0.40625,-0.10547 0.824219,-0.15625 1.257813,-0.15625 0.394531,0 0.785156,0.043 1.179687,0.13281 0.386719,0.0859 0.734375,0.22266 1.039063,0.41016 0.304687,0.1875 0.550781,0.42578 0.738281,0.72656 0.191406,0.29688 0.285156,0.65625 0.285156,1.07422 0,0.30078 -0.04297,0.5625 -0.128906,0.78906 -0.08984,0.22657 -0.207031,0.42969 -0.351563,0.60547 -0.152344,0.17578 -0.316406,0.33594 -0.503906,0.47656 -0.183594,0.14063 -0.378906,0.27735 -0.585938,0.40625 l -1.183593,0.75391 h 2.777343 v 2.01953 h -6.53125 v -1.8789 z m 0,0"
       id="path883" />
    <path
       style="fill:#194726;fill-opacity:1;fill-rule:nonzero;stroke:none"
       d="m 101.95313,111.01953 c -0.16797,0 -0.30469,0.0508 -0.40625,0.15235 -0.10938,0.10156 -0.19141,0.23437 -0.25391,0.39453 -0.0586,0.16406 -0.10156,0.34765 -0.125,0.54297 -0.0234,0.20312 -0.0312,0.39453 -0.0312,0.58593 0,0.19532 0.008,0.39844 0.0312,0.60547 0.0234,0.20703 0.0664,0.39453 0.125,0.5625 0.0625,0.16797 0.14453,0.3086 0.25391,0.41016 0.10156,0.10547 0.23828,0.16015 0.40625,0.16015 0.16796,0 0.30859,-0.0547 0.41796,-0.16015 0.10938,-0.10156 0.19141,-0.24219 0.25,-0.41016 0.0547,-0.16797 0.0977,-0.35547 0.11719,-0.5625 0.0234,-0.20703 0.0352,-0.41015 0.0352,-0.60547 0,-0.1914 -0.0117,-0.38281 -0.0352,-0.58593 -0.0195,-0.19532 -0.0625,-0.37891 -0.11719,-0.54297 -0.0586,-0.16016 -0.14062,-0.29297 -0.25,-0.39453 -0.10937,-0.10157 -0.25,-0.15235 -0.41796,-0.15235 m 0,5.51563 c -0.49219,0 -0.92579,-0.0586 -1.29688,-0.17188 -0.37109,-0.11328 -0.6875,-0.26953 -0.957031,-0.46875 -0.265625,-0.19531 -0.484375,-0.42187 -0.664063,-0.67969 -0.179687,-0.25781 -0.316406,-0.52734 -0.421875,-0.8125 -0.101562,-0.28515 -0.171875,-0.57031 -0.214843,-0.86328 -0.04297,-0.28906 -0.0625,-0.57422 -0.0625,-0.84375 0,-0.26562 0.01953,-0.54297 0.0625,-0.83203 0.04297,-0.29297 0.113281,-0.57422 0.214843,-0.85547 0.105469,-0.27734 0.242188,-0.53906 0.421875,-0.79297 0.179688,-0.25 0.398438,-0.46875 0.664063,-0.66015 0.269531,-0.1875 0.585941,-0.33985 0.957031,-0.44922 0.37109,-0.11328 0.80469,-0.16797 1.29688,-0.16797 0.74218,0 1.35156,0.11719 1.82031,0.35938 0.47265,0.24218 0.83984,0.54687 1.10547,0.91406 0.26562,0.37109 0.44531,0.77734 0.54687,1.21875 0.0977,0.44531 0.14844,0.86719 0.14844,1.26562 0,0.26563 -0.0234,0.54297 -0.0625,0.83985 -0.043,0.29297 -0.11719,0.58203 -0.21875,0.86718 -0.10156,0.28516 -0.23828,0.55469 -0.41406,0.8125 -0.17578,0.25782 -0.39844,0.48438 -0.66407,0.67969 -0.27343,0.19922 -0.58984,0.35547 -0.96093,0.46875 -0.375,0.11328 -0.8086,0.17188 -1.30078,0.17188"
       id="path885" />
    <path
       style="fill:#194726;fill-opacity:1;fill-rule:nonzero;stroke:none"
       d="m 109.875,112.17578 c 0.12891,-0.0859 0.23438,-0.18359 0.31641,-0.29297 0.0859,-0.10937 0.125,-0.21875 0.125,-0.33593 0,-0.13672 -0.0469,-0.25391 -0.14063,-0.35547 -0.0937,-0.10157 -0.24219,-0.15235 -0.44922,-0.15235 -0.21875,0 -0.40234,0.0781 -0.54687,0.23438 -0.14453,0.15625 -0.22266,0.36328 -0.23828,0.6289 l -2.58203,-0.26562 c 0.0508,-0.46484 0.1875,-0.86719 0.41015,-1.20703 0.21875,-0.33985 0.49219,-0.6211 0.82422,-0.84375 0.32813,-0.22266 0.69531,-0.38672 1.10156,-0.49219 0.40625,-0.10547 0.82422,-0.15625 1.25782,-0.15625 0.39453,0 0.78906,0.043 1.17968,0.13281 0.39063,0.0859 0.73828,0.22266 1.03907,0.41016 0.30468,0.1875 0.55078,0.42578 0.74218,0.72656 0.1875,0.29688 0.28125,0.65625 0.28125,1.07422 0,0.30078 -0.043,0.5625 -0.1289,0.78906 -0.0859,0.22657 -0.20703,0.42969 -0.35157,0.60547 -0.14843,0.17578 -0.3164,0.33594 -0.5,0.47656 -0.1875,0.14063 -0.38281,0.27735 -0.58593,0.40625 l -1.1875,0.75391 h 2.77734 v 2.01953 h -6.53125 v -1.8789 z m 0,0"
       id="path887" />
    <path
       style="fill:#194726;fill-opacity:1;fill-rule:nonzero;stroke:none"
       d="m 118.125,111.35547 -1.34375,1.81641 h 1.39063 v -1.81641 z m 2.46875,4.97656 h -2.45703 v -1.26953 h -3.87891 v -1.97266 l 3.04688,-3.94921 h 3.27734 v 4.03125 h 1.09375 v 1.89062 h -1.08203 z m 0,0"
       id="path889" />
    <path
       style="fill:#194726;fill-opacity:1;fill-rule:nonzero;stroke:none"
       d="M 118.19141,31.164062 95.203125,23.84375 93.878906,32.960938 87.214844,30.894531 V 21.375 H 57.125 v 9.566406 L 50.128906,33.082031 48.917969,23.890625 25.867188,31.25 l -3.53125,72.0625 h 9.117187 l 3.09375,-65.308594 7.671875,-2.421875 1.734375,9.078125 20.097656,-6.511718 v -5.070313 h 15.8125 v 4.960937 l 20.238279,6.511719 1.73828,-9.03125 7.96094,2.519531 2.67188,65.273438 h 9.14843 z m 0,0"
       id="path891" />
    <path
       style="fill:#194726;fill-opacity:1;fill-rule:nonzero;stroke:none"
       d="M 91.050781,92.949219 H 77.132812 V 71.527344 H 91.050781 Z M 95.945312,66.515625 V 61.222656 H 72.390625 L 72.375,66.515625 h -4.210938 v 31.410156 h 4.230469 v 5.253909 h 23.550781 v -5.27344 h 4.214848 V 66.515625 Z m 0,0"
       id="path893" />
    <path
       style="fill:#194726;fill-opacity:1;fill-rule:nonzero;stroke:none"
       d="m 109.64063,103.17969 h -7.71485 V 61.203125 h 7.71485 z m 0,0"
       id="path895" />
    <path
       style="fill:#194726;fill-opacity:1;fill-rule:nonzero;stroke:none"
       d="m 57.339844,77.050781 -14.972656,0.02734 v -5.539063 l 14.972656,-0.02734 z m 0,15.890625 -14.972656,-0.02734 v -5.589843 l 14.972656,0.02734 z M 66.257812,77.042969 V 66.496094 H 61.972656 V 61.222656 H 34.527344 v 41.957034 h 27.445312 v -5.238284 h 4.265625 V 82.226562 h -4.246093 v -5.183593 z m 0,0"
       id="path897" />
  </g>
</svg>
